<svg width="82" height="30" viewBox="0 0 82 30" fill="none" xmlns="http://www.w3.org/2000/svg">
<rect y="0.5" width="82" height="29" rx="4" fill="#F4D04E"/>
<path d="M12.952 19.5V9.7H15.206V19.5H12.952ZM14.296 19.5V17.428H19.378V19.5H14.296ZM23.7589 19.668C23.0309 19.668 22.3869 19.514 21.8269 19.206C21.2669 18.898 20.8282 18.4687 20.5109 17.918C20.1936 17.3673 20.0349 16.728 20.0349 16C20.0349 15.272 20.1936 14.6327 20.5109 14.082C20.8282 13.5313 21.2669 13.102 21.8269 12.794C22.3962 12.486 23.0449 12.332 23.7729 12.332C24.4449 12.332 25.0469 12.4907 25.5789 12.808C26.1109 13.1253 26.5309 13.6013 26.8389 14.236C27.1562 14.8613 27.3149 15.636 27.3149 16.56H25.1309C25.1402 16.0093 25.0936 15.5473 24.9909 15.174C24.8976 14.7913 24.7436 14.5067 24.5289 14.32C24.3142 14.124 24.0342 14.026 23.6889 14.026C23.3809 14.026 23.1196 14.1053 22.9049 14.264C22.6996 14.4227 22.5456 14.656 22.4429 14.964C22.3496 15.2627 22.3029 15.6407 22.3029 16.098C22.3029 16.5087 22.3729 16.8447 22.5129 17.106C22.6529 17.358 22.8349 17.5447 23.0589 17.666C23.2922 17.7873 23.5442 17.848 23.8149 17.848C24.1509 17.848 24.4309 17.7733 24.6549 17.624C24.8882 17.4747 25.0469 17.2833 25.1309 17.05L27.1189 17.722C26.9322 18.17 26.6662 18.5387 26.3209 18.828C25.9849 19.1173 25.5929 19.332 25.1449 19.472C24.7062 19.6027 24.2442 19.668 23.7589 19.668ZM21.4349 16.56L21.4489 15.076H26.2789V16.56H21.4349ZM32.4719 19.5L32.4159 16.014C32.4159 15.6407 32.3833 15.3187 32.3179 15.048C32.2526 14.768 32.1313 14.5533 31.9539 14.404C31.7766 14.2453 31.5153 14.166 31.1699 14.166C30.9273 14.166 30.7173 14.222 30.5399 14.334C30.3626 14.4367 30.1946 14.6047 30.0359 14.838L28.0899 14.208C28.2673 13.8627 28.4913 13.55 28.7619 13.27C29.0419 12.9807 29.3826 12.752 29.7839 12.584C30.1946 12.416 30.6753 12.332 31.2259 12.332C31.9446 12.332 32.5559 12.4627 33.0599 12.724C33.5639 12.9853 33.9419 13.3633 34.1939 13.858C34.4553 14.3433 34.5859 14.922 34.5859 15.594V19.5H32.4719ZM30.5959 19.668C29.7746 19.668 29.1353 19.486 28.6779 19.122C28.2206 18.7487 27.9919 18.2167 27.9919 17.526C27.9919 16.7887 28.2299 16.238 28.7059 15.874C29.1819 15.51 29.8493 15.328 30.7079 15.328H32.7379L32.7519 16.742H31.5059C31.0486 16.742 30.7173 16.8073 30.5119 16.938C30.3066 17.0593 30.2039 17.2367 30.2039 17.47C30.2039 17.638 30.2786 17.7733 30.4279 17.876C30.5773 17.9693 30.7873 18.016 31.0579 18.016C31.3193 18.016 31.5479 17.9553 31.7439 17.834C31.9399 17.7127 32.0939 17.554 32.2059 17.358C32.3179 17.162 32.3739 16.9473 32.3739 16.714L33.0039 16.574C33.0039 17.554 32.8033 18.3147 32.4019 18.856C32.0006 19.3973 31.3986 19.668 30.5959 19.668ZM37.5252 15.874C37.5252 15.118 37.6745 14.488 37.9732 13.984C38.2812 13.48 38.6638 13.102 39.1212 12.85C39.5878 12.598 40.0732 12.472 40.5772 12.472V14.6C40.1478 14.6 39.7418 14.6467 39.3592 14.74C38.9858 14.8333 38.6825 14.978 38.4492 15.174C38.2158 15.3607 38.0992 15.6033 38.0992 15.902L37.5252 15.874ZM35.9152 19.5V12.5H38.0992V19.5H35.9152ZM41.4933 19.5V12.5H43.5513L43.6773 13.788V19.5H41.4933ZM46.0013 19.5V15.916L48.1853 15.496V19.5H46.0013ZM46.0013 15.916C46.0013 15.5427 45.9593 15.2487 45.8753 15.034C45.7913 14.81 45.67 14.6467 45.5113 14.544C45.362 14.4413 45.1753 14.3853 44.9513 14.376C44.5313 14.3667 44.214 14.4833 43.9993 14.726C43.7846 14.9593 43.6773 15.3187 43.6773 15.804H43.0193C43.0193 15.0667 43.1313 14.4413 43.3553 13.928C43.5793 13.4053 43.8826 13.0087 44.2653 12.738C44.6573 12.4673 45.11 12.332 45.6233 12.332C46.4726 12.332 47.112 12.5887 47.5413 13.102C47.9706 13.6153 48.1853 14.4133 48.1853 15.496L46.0013 15.916ZM49.6447 19.5V12.5H51.8287V19.5H49.6447ZM50.7367 11.604C50.41 11.604 50.1207 11.4827 49.8687 11.24C49.626 10.988 49.5047 10.6987 49.5047 10.372C49.5047 10.0267 49.626 9.73733 49.8687 9.504C50.1207 9.26133 50.41 9.14 50.7367 9.14C51.0727 9.14 51.362 9.26133 51.6047 9.504C51.8474 9.73733 51.9687 10.0267 51.9687 10.372C51.9687 10.6987 51.8474 10.988 51.6047 11.24C51.362 11.4827 51.0727 11.604 50.7367 11.604ZM53.3878 19.5V12.5H55.4458L55.5718 13.788V19.5H53.3878ZM57.8958 19.5V15.916L60.0798 15.496V19.5H57.8958ZM57.8958 15.916C57.8958 15.5427 57.8538 15.2487 57.7698 15.034C57.6858 14.81 57.5645 14.6467 57.4058 14.544C57.2565 14.4413 57.0698 14.3853 56.8458 14.376C56.4258 14.3667 56.1085 14.4833 55.8938 14.726C55.6792 14.9593 55.5718 15.3187 55.5718 15.804H54.9138C54.9138 15.0667 55.0258 14.4413 55.2498 13.928C55.4738 13.4053 55.7772 13.0087 56.1598 12.738C56.5518 12.4673 57.0045 12.332 57.5178 12.332C58.3672 12.332 59.0065 12.5887 59.4358 13.102C59.8652 13.6153 60.0798 14.4133 60.0798 15.496L57.8958 15.916ZM64.7172 22.496C64.1479 22.496 63.6486 22.4587 63.2192 22.384C62.7992 22.3093 62.4399 22.2113 62.1412 22.09C61.8426 21.9687 61.5952 21.8333 61.3992 21.684L62.2532 19.948C62.4026 20.0133 62.5799 20.0927 62.7852 20.186C62.9906 20.2887 63.2426 20.3773 63.5412 20.452C63.8399 20.5267 64.1992 20.564 64.6192 20.564C64.9459 20.564 65.2352 20.4987 65.4872 20.368C65.7486 20.2467 65.9492 20.0507 66.0892 19.78C66.2386 19.5187 66.3132 19.1873 66.3132 18.786V12.5H68.4972V18.702C68.4972 19.486 68.3479 20.1627 68.0492 20.732C67.7506 21.3013 67.3212 21.7353 66.7612 22.034C66.2012 22.342 65.5199 22.496 64.7172 22.496ZM64.2132 19.234C63.5599 19.234 62.9952 19.1033 62.5192 18.842C62.0526 18.5713 61.6886 18.1887 61.4272 17.694C61.1752 17.1993 61.0492 16.6113 61.0492 15.93C61.0492 15.1833 61.1752 14.544 61.4272 14.012C61.6886 13.48 62.0526 13.0693 62.5192 12.78C62.9952 12.4813 63.5599 12.332 64.2132 12.332C64.7546 12.332 65.2212 12.4813 65.6132 12.78C66.0146 13.0693 66.3226 13.4847 66.5372 14.026C66.7519 14.5673 66.8592 15.216 66.8592 15.972C66.8592 16.644 66.7519 17.2227 66.5372 17.708C66.3226 18.1933 66.0146 18.5713 65.6132 18.842C65.2212 19.1033 64.7546 19.234 64.2132 19.234ZM64.8572 17.414C65.1372 17.414 65.3752 17.3487 65.5712 17.218C65.7766 17.078 65.9306 16.8913 66.0332 16.658C66.1452 16.4247 66.2012 16.1587 66.2012 15.86C66.2012 15.5427 66.1452 15.2673 66.0332 15.034C65.9212 14.8007 65.7626 14.6187 65.5572 14.488C65.3612 14.3573 65.1232 14.292 64.8432 14.292C64.5726 14.292 64.3299 14.3573 64.1152 14.488C63.9099 14.6187 63.7466 14.8007 63.6252 15.034C63.5132 15.2673 63.4526 15.5427 63.4432 15.86C63.4526 16.1587 63.5132 16.4247 63.6252 16.658C63.7466 16.8913 63.9146 17.078 64.1292 17.218C64.3439 17.3487 64.5866 17.414 64.8572 17.414Z" fill="#111111"/>
</svg>
